<svg width="71" height="19" viewBox="0 0 71 19" fill="none" xmlns="http://www.w3.org/2000/svg">
<path d="M4.26172 0.9375V18H0.757812V0.9375H4.26172ZM10.6484 8.02734V18H7.27344V5.32031H10.4375L10.6484 8.02734ZM10.1562 11.2148H9.24219C9.24219 10.2773 9.36328 9.43359 9.60547 8.68359C9.84766 7.92578 10.1875 7.28125 10.625 6.75C11.0625 6.21094 11.582 5.80078 12.1836 5.51953C12.793 5.23047 13.4727 5.08594 14.2227 5.08594C14.8164 5.08594 15.3594 5.17187 15.8516 5.34375C16.3438 5.51563 16.7656 5.78906 17.1172 6.16406C17.4766 6.53906 17.75 7.03516 17.9375 7.65234C18.1328 8.26953 18.2305 9.02344 18.2305 9.91406V18H14.832V9.90234C14.832 9.33984 14.7539 8.90234 14.5977 8.58984C14.4414 8.27734 14.2109 8.05859 13.9062 7.93359C13.6094 7.80078 13.2422 7.73438 12.8047 7.73438C12.3516 7.73438 11.957 7.82422 11.6211 8.00391C11.293 8.18359 11.0195 8.43359 10.8008 8.75391C10.5898 9.06641 10.4297 9.43359 10.3203 9.85547C10.2109 10.2773 10.1562 10.7305 10.1562 11.2148ZM28.2852 15.2344V0H31.6836V18H28.625L28.2852 15.2344ZM20.2695 11.8125V11.5664C20.2695 10.5977 20.3789 9.71875 20.5977 8.92969C20.8164 8.13281 21.1367 7.44922 21.5586 6.87891C21.9805 6.30859 22.5 5.86719 23.1172 5.55469C23.7344 5.24219 24.4375 5.08594 25.2266 5.08594C25.9688 5.08594 26.6172 5.24219 27.1719 5.55469C27.7344 5.86719 28.2109 6.3125 28.6016 6.89062C29 7.46094 29.3203 8.13672 29.5625 8.91797C29.8047 9.69141 29.9805 10.5391 30.0898 11.4609V12C29.9805 12.8828 29.8047 13.7031 29.5625 14.4609C29.3203 15.2188 29 15.8828 28.6016 16.4531C28.2109 17.0156 27.7344 17.4531 27.1719 17.7656C26.6094 18.0781 25.9531 18.2344 25.2031 18.2344C24.4141 18.2344 23.7109 18.0742 23.0938 17.7539C22.4844 17.4336 21.9688 16.9844 21.5469 16.4062C21.1328 15.8281 20.8164 15.1484 20.5977 14.3672C20.3789 13.5859 20.2695 12.7344 20.2695 11.8125ZM23.6445 11.5664V11.8125C23.6445 12.3359 23.6836 12.8242 23.7617 13.2773C23.8477 13.7305 23.9844 14.1328 24.1719 14.4844C24.3672 14.8281 24.6172 15.0977 24.9219 15.293C25.2344 15.4805 25.6133 15.5742 26.0586 15.5742C26.6367 15.5742 27.1133 15.4453 27.4883 15.1875C27.8633 14.9219 28.1484 14.5586 28.3438 14.0977C28.5469 13.6367 28.6641 13.1055 28.6953 12.5039V10.9688C28.6719 10.4766 28.6016 10.0352 28.4844 9.64453C28.375 9.24609 28.2109 8.90625 27.9922 8.625C27.7812 8.34375 27.5156 8.125 27.1953 7.96875C26.8828 7.8125 26.5117 7.73438 26.082 7.73438C25.6445 7.73438 25.2695 7.83594 24.957 8.03906C24.6445 8.23438 24.3906 8.50391 24.1953 8.84766C24.0078 9.19141 23.8672 9.59766 23.7734 10.0664C23.6875 10.5273 23.6445 11.0273 23.6445 11.5664ZM40.1562 18.2344C39.1719 18.2344 38.2891 18.0781 37.5078 17.7656C36.7266 17.4453 36.0625 17.0039 35.5156 16.4414C34.9766 15.8789 34.5625 15.2266 34.2734 14.4844C33.9844 13.7344 33.8398 12.9375 33.8398 12.0938V11.625C33.8398 10.6641 33.9766 9.78516 34.25 8.98828C34.5234 8.19141 34.9141 7.5 35.4219 6.91406C35.9375 6.32812 36.5625 5.87891 37.2969 5.56641C38.0312 5.24609 38.8594 5.08594 39.7812 5.08594C40.6797 5.08594 41.4766 5.23438 42.1719 5.53125C42.8672 5.82812 43.4492 6.25 43.918 6.79688C44.3945 7.34375 44.7539 8 44.9961 8.76562C45.2383 9.52344 45.3594 10.3672 45.3594 11.2969V12.7031H35.2812V10.4531H42.043V10.1953C42.043 9.72656 41.957 9.30859 41.7852 8.94141C41.6211 8.56641 41.3711 8.26953 41.0352 8.05078C40.6992 7.83203 40.2695 7.72266 39.7461 7.72266C39.3008 7.72266 38.918 7.82031 38.5977 8.01562C38.2773 8.21094 38.0156 8.48438 37.8125 8.83594C37.6172 9.1875 37.4688 9.60156 37.3672 10.0781C37.2734 10.5469 37.2266 11.0625 37.2266 11.625V12.0938C37.2266 12.6016 37.2969 13.0703 37.4375 13.5C37.5859 13.9297 37.793 14.3008 38.0586 14.6133C38.332 14.9258 38.6602 15.168 39.043 15.3398C39.4336 15.5117 39.875 15.5977 40.3672 15.5977C40.9766 15.5977 41.543 15.4805 42.0664 15.2461C42.5977 15.0039 43.0547 14.6406 43.4375 14.1562L45.0781 15.9375C44.8125 16.3203 44.4492 16.6875 43.9883 17.0391C43.5352 17.3906 42.9883 17.6797 42.3477 17.9062C41.707 18.125 40.9766 18.2344 40.1562 18.2344ZM51.4297 15.5391L54.2422 5.32031H57.7695L53.4922 18H51.3594L51.4297 15.5391ZM49.4961 5.32031L52.3203 15.5508L52.3789 18H50.2344L45.957 5.32031H49.4961ZM58.5547 11.7891V11.543C58.5547 10.6133 58.6875 9.75781 58.9531 8.97656C59.2188 8.1875 59.6055 7.50391 60.1133 6.92578C60.6211 6.34766 61.2461 5.89844 61.9883 5.57812C62.7305 5.25 63.582 5.08594 64.543 5.08594C65.5039 5.08594 66.3594 5.25 67.1094 5.57812C67.8594 5.89844 68.4883 6.34766 68.9961 6.92578C69.5117 7.50391 69.9023 8.1875 70.168 8.97656C70.4336 9.75781 70.5664 10.6133 70.5664 11.543V11.7891C70.5664 12.7109 70.4336 13.5664 70.168 14.3555C69.9023 15.1367 69.5117 15.8203 68.9961 16.4062C68.4883 16.9844 67.8633 17.4336 67.1211 17.7539C66.3789 18.0742 65.5273 18.2344 64.5664 18.2344C63.6055 18.2344 62.75 18.0742 62 17.7539C61.2578 17.4336 60.6289 16.9844 60.1133 16.4062C59.6055 15.8203 59.2188 15.1367 58.9531 14.3555C58.6875 13.5664 58.5547 12.7109 58.5547 11.7891ZM61.9297 11.543V11.7891C61.9297 12.3203 61.9766 12.8164 62.0703 13.2773C62.1641 13.7383 62.3125 14.1445 62.5156 14.4961C62.7266 14.8398 63 15.1094 63.3359 15.3047C63.6719 15.5 64.082 15.5977 64.5664 15.5977C65.0352 15.5977 65.4375 15.5 65.7734 15.3047C66.1094 15.1094 66.3789 14.8398 66.582 14.4961C66.7852 14.1445 66.9336 13.7383 67.0273 13.2773C67.1289 12.8164 67.1797 12.3203 67.1797 11.7891V11.543C67.1797 11.0273 67.1289 10.543 67.0273 10.0898C66.9336 9.62891 66.7812 9.22266 66.5703 8.87109C66.3672 8.51172 66.0977 8.23047 65.7617 8.02734C65.4258 7.82422 65.0195 7.72266 64.543 7.72266C64.0664 7.72266 63.6602 7.82422 63.3242 8.02734C62.9961 8.23047 62.7266 8.51172 62.5156 8.87109C62.3125 9.22266 62.1641 9.62891 62.0703 10.0898C61.9766 10.543 61.9297 11.0273 61.9297 11.543Z" fill="#030408"/>
</svg>
