<svg width="106" height="28" viewBox="0 0 106 28" fill="none" xmlns="http://www.w3.org/2000/svg">
<path d="M5.89258 1.40625V27H0.636719V1.40625H5.89258ZM15.4727 12.041V27H10.4102V7.98047H15.1562L15.4727 12.041ZM14.7344 16.8223H13.3633C13.3633 15.416 13.5449 14.1504 13.9082 13.0254C14.2715 11.8887 14.7812 10.9219 15.4375 10.125C16.0938 9.31641 16.873 8.70117 17.7754 8.2793C18.6895 7.8457 19.709 7.62891 20.834 7.62891C21.7246 7.62891 22.5391 7.75781 23.2773 8.01562C24.0156 8.27344 24.6484 8.68359 25.1758 9.24609C25.7148 9.80859 26.125 10.5527 26.4062 11.4785C26.6992 12.4043 26.8457 13.5352 26.8457 14.8711V27H21.748V14.8535C21.748 14.0098 21.6309 13.3535 21.3965 12.8848C21.1621 12.416 20.8164 12.0879 20.3594 11.9004C19.9141 11.7012 19.3633 11.6016 18.707 11.6016C18.0273 11.6016 17.4355 11.7363 16.9316 12.0059C16.4395 12.2754 16.0293 12.6504 15.7012 13.1309C15.3848 13.5996 15.1445 14.1504 14.9805 14.7832C14.8164 15.416 14.7344 16.0957 14.7344 16.8223ZM41.9277 22.8516V0H47.0254V27H42.4375L41.9277 22.8516ZM29.9043 17.7188V17.3496C29.9043 15.8965 30.0684 14.5781 30.3965 13.3945C30.7246 12.1992 31.2051 11.1738 31.8379 10.3184C32.4707 9.46289 33.25 8.80078 34.1758 8.33203C35.1016 7.86328 36.1562 7.62891 37.3398 7.62891C38.4531 7.62891 39.4258 7.86328 40.2578 8.33203C41.1016 8.80078 41.8164 9.46875 42.4023 10.3359C43 11.1914 43.4805 12.2051 43.8438 13.377C44.207 14.5371 44.4707 15.8086 44.6348 17.1914V18C44.4707 19.3242 44.207 20.5547 43.8438 21.6914C43.4805 22.8281 43 23.8242 42.4023 24.6797C41.8164 25.5234 41.1016 26.1797 40.2578 26.6484C39.4141 27.1172 38.4297 27.3516 37.3047 27.3516C36.1211 27.3516 35.0664 27.1113 34.1406 26.6309C33.2266 26.1504 32.4531 25.4766 31.8203 24.6094C31.1992 23.7422 30.7246 22.7227 30.3965 21.5508C30.0684 20.3789 29.9043 19.1016 29.9043 17.7188ZM34.9668 17.3496V17.7188C34.9668 18.5039 35.0254 19.2363 35.1426 19.916C35.2715 20.5957 35.4766 21.1992 35.7578 21.7266C36.0508 22.2422 36.4258 22.6465 36.8828 22.9395C37.3516 23.2207 37.9199 23.3613 38.5879 23.3613C39.4551 23.3613 40.1699 23.168 40.7324 22.7812C41.2949 22.3828 41.7227 21.8379 42.0156 21.1465C42.3203 20.4551 42.4961 19.6582 42.543 18.7559V16.4531C42.5078 15.7148 42.4023 15.0527 42.2266 14.4668C42.0625 13.8691 41.8164 13.3594 41.4883 12.9375C41.1719 12.5156 40.7734 12.1875 40.293 11.9531C39.8242 11.7188 39.2676 11.6016 38.623 11.6016C37.9668 11.6016 37.4043 11.7539 36.9355 12.0586C36.4668 12.3516 36.0859 12.7559 35.793 13.2715C35.5117 13.7871 35.3008 14.3965 35.1602 15.0996C35.0312 15.791 34.9668 16.541 34.9668 17.3496ZM59.7344 27.3516C58.2578 27.3516 56.9336 27.1172 55.7617 26.6484C54.5898 26.168 53.5938 25.5059 52.7734 24.6621C51.9648 23.8184 51.3438 22.8398 50.9102 21.7266C50.4766 20.6016 50.2598 19.4062 50.2598 18.1406V17.4375C50.2598 15.9961 50.4648 14.6777 50.875 13.4824C51.2852 12.2871 51.8711 11.25 52.6328 10.3711C53.4062 9.49219 54.3438 8.81836 55.4453 8.34961C56.5469 7.86914 57.7891 7.62891 59.1719 7.62891C60.5195 7.62891 61.7148 7.85156 62.7578 8.29688C63.8008 8.74219 64.6738 9.375 65.377 10.1953C66.0918 11.0156 66.6309 12 66.9941 13.1484C67.3574 14.2852 67.5391 15.5508 67.5391 16.9453V19.0547H52.4219V15.6797H62.5645V15.293C62.5645 14.5898 62.4355 13.9629 62.1777 13.4121C61.9316 12.8496 61.5566 12.4043 61.0527 12.0762C60.5488 11.748 59.9043 11.584 59.1191 11.584C58.4512 11.584 57.877 11.7305 57.3965 12.0234C56.916 12.3164 56.5234 12.7266 56.2188 13.2539C55.9258 13.7812 55.7031 14.4023 55.5508 15.1172C55.4102 15.8203 55.3398 16.5938 55.3398 17.4375V18.1406C55.3398 18.9023 55.4453 19.6055 55.6562 20.25C55.8789 20.8945 56.1895 21.4512 56.5879 21.9199C56.998 22.3887 57.4902 22.752 58.0645 23.0098C58.6504 23.2676 59.3125 23.3965 60.0508 23.3965C60.9648 23.3965 61.8145 23.2207 62.5996 22.8691C63.3965 22.5059 64.082 21.9609 64.6562 21.2344L67.1172 23.9062C66.7188 24.4805 66.1738 25.0312 65.4824 25.5586C64.8027 26.0859 63.9824 26.5195 63.0215 26.8594C62.0605 27.1875 60.9648 27.3516 59.7344 27.3516ZM76.6445 23.3086L80.8633 7.98047H86.1543L79.7383 27H76.5391L76.6445 23.3086ZM73.7441 7.98047L77.9805 23.3262L78.0684 27H74.8516L68.4355 7.98047H73.7441ZM87.332 17.6836V17.3145C87.332 15.9199 87.5312 14.6367 87.9297 13.4648C88.3281 12.2812 88.9082 11.2559 89.6699 10.3887C90.4316 9.52148 91.3691 8.84766 92.4824 8.36719C93.5957 7.875 94.873 7.62891 96.3145 7.62891C97.7559 7.62891 99.0391 7.875 100.164 8.36719C101.289 8.84766 102.232 9.52148 102.994 10.3887C103.768 11.2559 104.354 12.2812 104.752 13.4648C105.15 14.6367 105.35 15.9199 105.35 17.3145V17.6836C105.35 19.0664 105.15 20.3496 104.752 21.5332C104.354 22.7051 103.768 23.7305 102.994 24.6094C102.232 25.4766 101.295 26.1504 100.182 26.6309C99.0684 27.1113 97.791 27.3516 96.3496 27.3516C94.9082 27.3516 93.625 27.1113 92.5 26.6309C91.3867 26.1504 90.4434 25.4766 89.6699 24.6094C88.9082 23.7305 88.3281 22.7051 87.9297 21.5332C87.5312 20.3496 87.332 19.0664 87.332 17.6836ZM92.3945 17.3145V17.6836C92.3945 18.4805 92.4648 19.2246 92.6055 19.916C92.7461 20.6074 92.9688 21.2168 93.2734 21.7441C93.5898 22.2598 94 22.6641 94.5039 22.957C95.0078 23.25 95.623 23.3965 96.3496 23.3965C97.0527 23.3965 97.6562 23.25 98.1602 22.957C98.6641 22.6641 99.0684 22.2598 99.373 21.7441C99.6777 21.2168 99.9004 20.6074 100.041 19.916C100.193 19.2246 100.27 18.4805 100.27 17.6836V17.3145C100.27 16.541 100.193 15.8145 100.041 15.1348C99.9004 14.4434 99.6719 13.834 99.3555 13.3066C99.0508 12.7676 98.6465 12.3457 98.1426 12.041C97.6387 11.7363 97.0293 11.584 96.3145 11.584C95.5996 11.584 94.9902 11.7363 94.4863 12.041C93.9941 12.3457 93.5898 12.7676 93.2734 13.3066C92.9688 13.834 92.7461 14.4434 92.6055 15.1348C92.4648 15.8145 92.3945 16.541 92.3945 17.3145Z" fill="#030408"/>
</svg>
